<svg version="1.1" id="Layer_1" xmlns="http://www.w3.org/2000/svg" xmlns:xlink="http://www.w3.org/1999/xlink" x="0px" y="0px"
	 width="100%" viewBox="0 0 1024 224" enable-background="new 0 0 1024 224" xml:space="preserve">
<path fill="#000000" opacity="1.000000" stroke="none" 
	d="
M671.454102,225.000000 
	C664.018005,220.575943 662.436401,214.101288 662.530396,206.149445 
	C662.870972,177.346481 662.642151,148.537079 662.675781,119.730156 
	C662.715881,85.394760 688.429443,56.369576 721.912231,52.802055 
	C756.837463,49.080849 788.203735,71.689842 794.887939,106.148827 
	C801.000610,137.661789 782.006714,176.573761 740.421814,182.314041 
	C723.740845,184.616653 708.331848,181.596970 694.306458,172.101273 
	C693.622742,171.638367 692.878113,171.251373 692.123657,170.914780 
	C691.872986,170.802917 691.502258,170.960022 691.107422,171.002716 
	C689.824402,172.580780 690.411621,174.487793 690.403076,176.240173 
	C690.350647,187.063202 690.197388,197.891479 690.467102,208.708328 
	C690.648193,215.968292 688.068604,221.295151 681.242554,224.767914 
	C677.969421,225.000000 674.938782,225.000000 671.454102,225.000000 
M767.669373,122.960884 
	C770.966858,97.093918 749.566833,77.773254 727.893616,79.319565 
	C712.518982,80.416481 700.909424,87.819885 694.497314,101.870659 
	C687.891052,116.346962 689.925293,130.249069 700.320862,142.392181 
	C710.275024,154.019684 723.268005,158.342148 738.072998,154.937332 
	C754.462708,151.168030 763.810364,139.958664 767.669373,122.960884 
z"/>
<path fill="#000000" opacity="1.000000" stroke="none" 
	d="
M350.621216,12.353179 
	C355.559814,17.878117 356.555084,23.686188 353.674652,30.189409 
	C333.510681,75.714211 313.451538,121.285675 293.165009,166.755707 
	C289.276672,175.470978 281.787933,179.915115 272.376862,179.800919 
	C263.255951,179.690247 255.850952,175.540741 252.003036,166.910965 
	C231.861893,121.740013 211.835876,76.517601 191.846130,31.279358 
	C187.743515,21.994825 190.295227,13.583777 197.991898,9.848694 
	C206.632584,5.655493 215.293365,8.895182 219.321075,18.242252 
	C227.424744,37.048363 235.245224,55.976276 243.286285,74.809647 
	C252.112213,95.481255 261.051453,116.104507 269.954865,136.742981 
	C270.539307,138.097702 271.239197,139.402573 272.015869,140.998779 
	C274.220032,139.918213 274.623199,137.878983 275.370422,136.174072 
	C292.348358,97.436783 308.971313,58.548183 325.024506,19.417517 
	C329.889374,7.559093 339.969696,4.640369 350.621216,12.353179 
z"/>
<path fill="#000000" opacity="1.000000" stroke="none" 
	d="
M445.262451,98.829132 
	C437.396973,87.410515 426.063477,82.864052 413.904053,86.012291 
	C402.061401,89.078499 393.405365,99.077454 392.623108,112.075188 
	C391.973328,122.871651 396.764435,131.568985 406.140747,137.096237 
	C409.768097,139.234528 410.522827,141.230148 409.176056,145.057098 
	C406.083527,153.844833 403.298279,162.743118 400.519287,171.637451 
	C399.579956,174.643829 398.270538,175.835510 395.132904,174.173279 
	C372.951141,162.422012 356.156952,141.796631 356.654449,115.574860 
	C357.189819,87.358650 381.028748,59.613762 409.184570,54.857960 
	C441.610229,49.380936 471.195038,66.809631 482.150787,97.843010 
	C492.806885,128.027542 477.553955,163.210098 448.836517,175.115051 
	C444.624207,176.861267 442.755127,176.385147 441.453064,171.704666 
	C438.867798,162.411743 435.743927,153.263550 432.656433,144.118423 
	C431.641602,141.112396 432.130951,139.434433 435.009064,137.663147 
	C449.100983,128.990707 452.996033,114.211121 445.262451,98.829132 
z"/>
<path fill="#000000" opacity="1.000000" stroke="none" 
	d="
M527.619995,158.333069 
	C517.914673,146.109940 513.516541,132.470428 513.614014,117.261719 
	C513.710022,102.265732 513.627197,87.268677 513.660950,72.272179 
	C513.682800,62.532070 519.171509,56.328823 527.632996,56.384548 
	C536.069580,56.440102 541.325500,62.603340 541.338440,72.528511 
	C541.358887,88.191566 541.268799,103.855171 541.369385,119.517609 
	C541.479370,136.641571 551.715088,149.316147 568.072021,152.842407 
	C586.777222,156.874908 605.966553,142.543808 606.615173,123.384384 
	C607.189880,106.407059 606.843079,89.398041 606.870239,72.402969 
	C606.878601,67.172569 608.028381,62.451290 612.512817,59.176556 
	C621.386536,52.696609 634.345215,57.679619 634.680542,68.690483 
	C635.323059,89.784523 637.251892,111.082428 633.255310,131.995041 
	C627.778076,160.655273 603.572266,180.226913 574.443176,180.001221 
	C555.890320,179.857498 540.049255,172.994934 527.619995,158.333069 
z"/>
<path fill="#000000" opacity="1.000000" stroke="none" 
	d="
M852.451416,106.262993 
	C853.333435,126.353241 852.427185,145.986725 852.331726,165.616882 
	C852.290283,174.147171 846.706604,179.256409 838.989624,179.403214 
	C830.495972,179.564774 825.357422,175.100159 824.521301,166.314346 
	C824.033630,161.190186 824.046692,156.007187 824.039734,150.850372 
	C824.005859,125.700272 824.019714,100.550018 824.081787,75.399986 
	C824.088745,72.582390 824.247498,69.714836 824.787659,66.958977 
	C826.061523,60.458805 832.393799,55.829414 839.111023,56.202942 
	C846.114319,56.592384 852.117615,62.010185 852.263611,68.864250 
	C852.525696,81.172813 853.585083,93.486702 852.451416,106.262993 
z"/>
<path fill="#000000" opacity="1.000000" stroke="none" 
	d="
M855.082581,23.891291 
	C852.598389,36.076347 842.879578,42.088871 832.710571,38.132538 
	C825.162598,35.195923 821.367920,28.396336 822.676086,20.152273 
	C823.768982,13.264920 830.268982,7.699701 837.821960,7.184664 
	C844.861816,6.704620 852.210999,11.749408 854.253784,18.579674 
	C854.725342,20.156088 854.829346,21.842409 855.082581,23.891291 
z"/>
</svg>